<svg xmlns="http://www.w3.org/2000/svg" viewBox="-2 -2 204 214">
  <defs>
    <filter id="g" x="-50%" y="-50%" width="200%" height="200%">
      <feGaussianBlur stdDeviation="3" result="b"/>
      <feMerge><feMergeNode in="b"/><feMergeNode in="SourceGraphic"/></feMerge>
    </filter>
  </defs>
  <!-- Staff -->
  <circle cx="100" cy="110" r="40" fill="none" stroke="#e2a832" stroke-width=".7" opacity=".18"/>
  <circle cx="100" cy="110" r="47" fill="none" stroke="#e2a832" stroke-width=".7" opacity=".18"/>
  <circle cx="100" cy="110" r="54" fill="none" stroke="#e2a832" stroke-width=".7" opacity=".18"/>
  <circle cx="100" cy="110" r="61" fill="none" stroke="#e2a832" stroke-width=".7" opacity=".18"/>
  <circle cx="100" cy="110" r="68" fill="none" stroke="#e2a832" stroke-width=".7" opacity=".18"/>
  <!-- Eighth (gold) -->
  <g filter="url(#g)"><ellipse cx="100" cy="50" rx="7" ry="5" transform="rotate(-20 100 50)" fill="#fcd872"/><line x1="106" y1="48" x2="106" y2="16" stroke="#fcd872" stroke-width="1.5" stroke-linecap="round"/><path d="M106,16c8,5 10,13 6,18" fill="none" stroke="#fcd872" stroke-width="1.2" stroke-linecap="round"/></g>
  <!-- OFF -->
  <circle cx="142.4" cy="67.6" r="2.5" fill="#daa040" opacity=".2"/>
  <!-- Quarter (amber) -->
  <g filter="url(#g)"><ellipse cx="160" cy="110" rx="7" ry="5" transform="rotate(-20 160 110)" fill="#e8a050"/><line x1="166" y1="108" x2="166" y2="76" stroke="#e8a050" stroke-width="1.5" stroke-linecap="round"/></g>
  <!-- Half (copper) -->
  <g filter="url(#g)"><ellipse cx="142.4" cy="152.4" rx="7" ry="5" transform="rotate(-20 142.4 152.4)" fill="none" stroke="#b86a3a" stroke-width="1.8"/><line x1="148" y1="150" x2="148" y2="118" stroke="#b86a3a" stroke-width="1.5" stroke-linecap="round"/></g>
  <!-- OFF -->
  <circle cx="100" cy="170" r="2.5" fill="#a06048" opacity=".2"/>
  <!-- Quarter (copper) -->
  <g filter="url(#g)"><ellipse cx="57.6" cy="152.4" rx="7" ry="5" transform="rotate(-20 57.6 152.4)" fill="#b86a3a"/><line x1="63.6" y1="150" x2="63.6" y2="118" stroke="#b86a3a" stroke-width="1.5" stroke-linecap="round"/></g>
  <!-- Eighth (amber) -->
  <g filter="url(#g)"><ellipse cx="40" cy="110" rx="7" ry="5" transform="rotate(-20 40 110)" fill="#e8a050"/><line x1="46" y1="108" x2="46" y2="76" stroke="#e8a050" stroke-width="1.5" stroke-linecap="round"/><path d="M46,76c8,5 10,13 6,18" fill="none" stroke="#e8a050" stroke-width="1.2" stroke-linecap="round"/></g>
  <!-- OFF -->
  <circle cx="57.6" cy="67.6" r="2.5" fill="#daa040" opacity=".2"/>
</svg>
