<svg xmlns="http://www.w3.org/2000/svg" viewBox="-2 -2 204 214">
  <!-- Monochrome: uses currentColor so it inherits from CSS -->
  <circle cx="100" cy="110" r="40" fill="none" stroke="currentColor" stroke-width=".7" opacity=".15"/>
  <circle cx="100" cy="110" r="47" fill="none" stroke="currentColor" stroke-width=".7" opacity=".15"/>
  <circle cx="100" cy="110" r="54" fill="none" stroke="currentColor" stroke-width=".7" opacity=".15"/>
  <circle cx="100" cy="110" r="61" fill="none" stroke="currentColor" stroke-width=".7" opacity=".15"/>
  <circle cx="100" cy="110" r="68" fill="none" stroke="currentColor" stroke-width=".7" opacity=".15"/>
  <g><ellipse cx="100" cy="50" rx="7" ry="5" transform="rotate(-20 100 50)" fill="currentColor"/><line x1="106" y1="48" x2="106" y2="16" stroke="currentColor" stroke-width="1.5" stroke-linecap="round"/><path d="M106,16c8,5 10,13 6,18" fill="none" stroke="currentColor" stroke-width="1.2" stroke-linecap="round"/></g>
  <circle cx="142.4" cy="67.6" r="2.5" fill="currentColor" opacity=".2"/>
  <g><ellipse cx="160" cy="110" rx="7" ry="5" transform="rotate(-20 160 110)" fill="currentColor"/><line x1="166" y1="108" x2="166" y2="76" stroke="currentColor" stroke-width="1.5" stroke-linecap="round"/></g>
  <g><ellipse cx="142.4" cy="152.4" rx="7" ry="5" transform="rotate(-20 142.4 152.4)" fill="none" stroke="currentColor" stroke-width="1.8"/><line x1="148" y1="150" x2="148" y2="118" stroke="currentColor" stroke-width="1.5" stroke-linecap="round"/></g>
  <circle cx="100" cy="170" r="2.5" fill="currentColor" opacity=".2"/>
  <g><ellipse cx="57.6" cy="152.4" rx="7" ry="5" transform="rotate(-20 57.6 152.4)" fill="currentColor"/><line x1="63.6" y1="150" x2="63.6" y2="118" stroke="currentColor" stroke-width="1.5" stroke-linecap="round"/></g>
  <g><ellipse cx="40" cy="110" rx="7" ry="5" transform="rotate(-20 40 110)" fill="currentColor"/><line x1="46" y1="108" x2="46" y2="76" stroke="currentColor" stroke-width="1.5" stroke-linecap="round"/><path d="M46,76c8,5 10,13 6,18" fill="none" stroke="currentColor" stroke-width="1.2" stroke-linecap="round"/></g>
  <circle cx="57.6" cy="67.6" r="2.5" fill="currentColor" opacity=".2"/>
</svg>
