<svg xmlns="http://www.w3.org/2000/svg" viewBox="-2 -2 204 214">
  <defs>
    <filter id="g" x="-50%" y="-50%" width="200%" height="200%">
      <feGaussianBlur stdDeviation="2" result="b"/>
      <feMerge><feMergeNode in="b"/><feMergeNode in="SourceGraphic"/></feMerge>
    </filter>
  </defs>
  <circle cx="100" cy="110" r="40" fill="none" stroke="#c4a84d" stroke-width=".7" opacity=".22"/>
  <circle cx="100" cy="110" r="47" fill="none" stroke="#c4a84d" stroke-width=".7" opacity=".22"/>
  <circle cx="100" cy="110" r="54" fill="none" stroke="#c4a84d" stroke-width=".7" opacity=".22"/>
  <circle cx="100" cy="110" r="61" fill="none" stroke="#c4a84d" stroke-width=".7" opacity=".22"/>
  <circle cx="100" cy="110" r="68" fill="none" stroke="#c4a84d" stroke-width=".7" opacity=".22"/>
  <g filter="url(#g)"><ellipse cx="100" cy="50" rx="7" ry="5" transform="rotate(-20 100 50)" fill="#a0622e"/><line x1="106" y1="48" x2="106" y2="16" stroke="#a0622e" stroke-width="1.5" stroke-linecap="round"/><path d="M106,16c8,5 10,13 6,18" fill="none" stroke="#a0622e" stroke-width="1.2" stroke-linecap="round"/></g>
  <circle cx="142.4" cy="67.6" r="2.5" fill="#a0622e" opacity=".25"/>
  <g filter="url(#g)"><ellipse cx="160" cy="110" rx="7" ry="5" transform="rotate(-20 160 110)" fill="#8b5430"/><line x1="166" y1="108" x2="166" y2="76" stroke="#8b5430" stroke-width="1.5" stroke-linecap="round"/></g>
  <g filter="url(#g)"><ellipse cx="142.4" cy="152.4" rx="7" ry="5" transform="rotate(-20 142.4 152.4)" fill="none" stroke="#704228" stroke-width="1.8"/><line x1="148" y1="150" x2="148" y2="118" stroke="#704228" stroke-width="1.5" stroke-linecap="round"/></g>
  <circle cx="100" cy="170" r="2.5" fill="#704228" opacity=".25"/>
  <g filter="url(#g)"><ellipse cx="57.6" cy="152.4" rx="7" ry="5" transform="rotate(-20 57.6 152.4)" fill="#704228"/><line x1="63.6" y1="150" x2="63.6" y2="118" stroke="#704228" stroke-width="1.5" stroke-linecap="round"/></g>
  <g filter="url(#g)"><ellipse cx="40" cy="110" rx="7" ry="5" transform="rotate(-20 40 110)" fill="#8b5430"/><line x1="46" y1="108" x2="46" y2="76" stroke="#8b5430" stroke-width="1.5" stroke-linecap="round"/><path d="M46,76c8,5 10,13 6,18" fill="none" stroke="#8b5430" stroke-width="1.2" stroke-linecap="round"/></g>
  <circle cx="57.6" cy="67.6" r="2.5" fill="#a0622e" opacity=".25"/>
</svg>
